<svg width="146" height="46" viewBox="0 0 146 46" fill="none" xmlns="http://www.w3.org/2000/svg">
<path d="M30.0293 40.366C27.8582 41.2456 25.4812 41.7278 22.9951 41.7278C20.509 41.7278 18.132 41.2431 15.9585 40.366L22.9951 26.0068L30.0293 40.366Z" fill="#061033"/>
<path d="M45.9901 45.8883H35.646L17.8291 9.52515H28.1732L45.9901 45.8883Z" fill="url(#paint0_linear_4483_98)"/>
<path d="M21.5411 23.0385L10.3441 45.8882H0L16.3679 12.4812L21.5411 23.0385Z" fill="url(#paint1_linear_4483_98)"/>
<path d="M45.939 22.9441C45.939 26.9688 44.9019 30.7513 43.0822 34.0394L40.71 29.2005C41.4006 27.2426 41.7762 25.137 41.7762 22.9441C41.7762 17.686 39.6172 12.932 36.1352 9.52269C32.7478 6.2055 28.11 4.158 22.9925 4.158C17.8749 4.158 13.2372 6.20308 9.8497 9.52269C6.36774 12.932 4.20878 17.686 4.20878 22.9441C4.20878 25.137 4.58436 27.2426 5.27493 29.2005L2.90516 34.0394C1.08543 30.7513 0.0507812 26.9688 0.0507812 22.9441C0.0507812 17.9332 1.65728 13.2978 4.38324 9.52269C8.55093 3.75577 15.3331 0 22.9949 0C30.6567 0 37.4413 3.75577 41.6065 9.52511C44.3325 13.2978 45.939 17.9356 45.939 22.9465V22.9441Z" fill="#061033"/>
<path d="M141.684 14.9505C140.182 14.9505 138.961 13.7293 138.961 12.227C138.961 10.7246 140.182 9.50342 141.684 9.50342C143.187 9.50342 144.408 10.7246 144.408 12.227C144.408 13.7293 143.187 14.9505 141.684 14.9505ZM141.684 10.1043C140.514 10.1043 139.562 11.0566 139.562 12.227C139.562 13.3973 140.514 14.3496 141.684 14.3496C142.855 14.3496 143.807 13.3973 143.807 12.227C143.807 11.0566 142.855 10.1043 141.684 10.1043Z" fill="#061033"/>
<path d="M142.351 13.453L141.881 12.7746H141.362V13.453H140.8V11.0203H141.854C142.07 11.0203 142.257 11.0566 142.416 11.1269C142.574 11.1996 142.698 11.3013 142.782 11.4322C142.867 11.5655 142.911 11.7205 142.911 11.9023C142.911 12.084 142.867 12.2391 142.78 12.3699C142.693 12.5008 142.569 12.6001 142.409 12.6704L142.954 13.453H142.349H142.351ZM142.208 11.5873C142.121 11.5146 141.992 11.4782 141.823 11.4782H141.365V12.3263H141.823C141.992 12.3263 142.121 12.29 142.208 12.2148C142.295 12.1397 142.341 12.0355 142.341 11.9023C142.341 11.769 142.298 11.66 142.208 11.5873Z" fill="#061033"/>
<path d="M64.3983 9.37012H67.9626L78.1129 34.8003H74.3305L71.7838 28.4688H60.5408L58.0668 34.8003H54.2456L64.3959 9.37012H64.3983ZM70.7661 25.377L66.1817 13.4797L61.5972 25.377H70.7661Z" fill="#061033"/>
<path d="M83.0076 33.8188C82.0481 32.8012 81.5707 31.357 81.5707 29.4888V20.1745H78.915V17.3371H81.5707V12.0984H85.2805V17.3371H89.5742V20.1745H85.2805V29.2344C85.2805 30.3975 85.5034 31.2237 85.9541 31.7083C86.4024 32.193 87.2213 32.4353 88.4087 32.4353C89.1113 32.4353 89.814 32.2778 90.5192 31.9628V34.8729C89.596 35.1879 88.4571 35.3454 87.1002 35.3454C85.3289 35.3454 83.9647 34.8365 83.0076 33.8164V33.8188Z" fill="#061033"/>
<path d="M94.5947 7.91626H98.2681V34.8027H94.5947V7.91626Z" fill="#061033"/>
<path d="M104.236 13.3003C103.824 12.8884 103.618 12.3795 103.618 11.7714C103.618 11.1632 103.824 10.6567 104.236 10.2424C104.648 9.83047 105.157 9.62451 105.765 9.62451C106.373 9.62451 106.923 9.83047 107.347 10.2424C107.771 10.6543 107.985 11.1656 107.985 11.7714C107.985 12.3771 107.771 12.8884 107.347 13.3003C106.923 13.7122 106.395 13.9182 105.765 13.9182C105.135 13.9182 104.648 13.7122 104.236 13.3003ZM103.909 17.3396H107.657V34.8027H103.909V17.3396Z" fill="#061033"/>
<path d="M119.317 33.2375C117.195 32.1955 115.545 30.7078 114.369 28.7814C113.192 26.8527 112.605 24.604 112.605 22.0332C112.605 19.4623 113.187 17.141 114.353 15.1395C115.516 13.138 117.117 11.5873 119.155 10.4824C121.193 9.37985 123.473 8.82739 125.995 8.82739C128.518 8.82739 130.798 9.37985 132.836 10.4824C134.874 11.5873 136.473 13.138 137.638 15.1395C138.801 17.141 139.385 19.438 139.385 22.0332C139.385 24.0952 138.918 25.9804 137.985 27.691C137.052 29.4017 135.821 30.7053 134.292 31.6019H139.785V34.8028H126.652C123.887 34.8028 121.442 34.2818 119.322 33.2375H119.317ZM130.977 30.3274C132.433 29.6004 133.565 28.527 134.379 27.1071C135.191 25.6872 135.598 23.9958 135.598 22.0307C135.598 20.0656 135.174 18.3743 134.326 16.8817C133.475 15.3891 132.324 14.243 130.871 13.4434C129.414 12.6437 127.791 12.2439 125.995 12.2439C124.2 12.2439 122.569 12.6437 121.103 13.4434C119.635 14.243 118.477 15.3842 117.629 16.8623C116.778 18.3428 116.354 20.0632 116.354 22.0283C116.354 23.9934 116.761 25.7162 117.573 27.1216C118.385 28.5294 119.519 29.5956 120.975 30.3225C122.431 31.0494 124.103 31.4129 125.995 31.4129C127.888 31.4129 129.523 31.0494 130.98 30.3225L130.977 30.3274Z" fill="#061033"/>
<path d="M75.1322 43.6056C75.0426 43.6783 74.9335 43.734 74.8051 43.7704C74.6767 43.8067 74.541 43.8261 74.398 43.8261C74.037 43.8261 73.7607 43.7316 73.5645 43.545C73.3682 43.356 73.2689 43.0822 73.2689 42.7236V41.1462H72.7285V40.5332H73.2689V39.7844H74.0346V40.5332H74.9117V41.1462H74.0346V42.7042C74.0346 42.8642 74.0733 42.9853 74.1509 43.0701C74.2284 43.1549 74.3399 43.1961 74.4877 43.1961C74.6597 43.1961 74.8027 43.1501 74.9166 43.0604L75.1322 43.6056Z" fill="#602BE9"/>
<path d="M81.1388 42.3917H78.568C78.614 42.634 78.7303 42.823 78.9217 42.966C79.1107 43.1065 79.3482 43.1768 79.6293 43.1768C79.9903 43.1768 80.2859 43.0581 80.5185 42.8206L80.9305 43.2931C80.7826 43.47 80.5961 43.6008 80.3732 43.6929C80.1478 43.7826 79.8958 43.8286 79.6123 43.8286C79.2513 43.8286 78.9363 43.7559 78.6625 43.6129C78.3887 43.47 78.1778 43.2713 78.0276 43.0144C77.8774 42.76 77.8047 42.4693 77.8047 42.147C77.8047 41.8247 77.8774 41.5412 78.0228 41.2844C78.1681 41.0299 78.3693 40.8288 78.6261 40.6859C78.883 40.5429 79.1737 40.4702 79.4984 40.4702C79.8231 40.4702 80.1018 40.5405 80.3538 40.681C80.6058 40.8216 80.802 41.0203 80.9426 41.2771C81.0831 41.5339 81.1534 41.8271 81.1534 42.1639C81.1534 42.2173 81.1485 42.2924 81.1413 42.3917H81.1388ZM78.8733 41.3038C78.7036 41.4491 78.5995 41.643 78.5631 41.8829H80.4216C80.3877 41.6454 80.2883 41.454 80.1211 41.3062C79.954 41.1584 79.7456 41.0857 79.496 41.0857C79.2464 41.0857 79.0429 41.1584 78.8733 41.3038Z" fill="#602BE9"/>
<path d="M84.8924 43.6129C84.6235 43.47 84.4127 43.2713 84.26 43.0144C84.1098 42.76 84.0322 42.4693 84.0322 42.147C84.0322 41.8247 84.1073 41.5364 84.26 41.2819C84.4102 41.0275 84.621 40.8313 84.89 40.6859C85.159 40.5429 85.4643 40.4702 85.8059 40.4702C86.1282 40.4702 86.4117 40.5356 86.6564 40.6665C86.8987 40.7973 87.0829 40.9863 87.2065 41.2311L86.6177 41.5751C86.5232 41.4249 86.4068 41.311 86.2639 41.2335C86.1233 41.1584 85.9683 41.1196 85.8011 41.1196C85.5152 41.1196 85.2777 41.2117 85.0887 41.3983C84.8997 41.5848 84.8076 41.832 84.8076 42.1446C84.8076 42.4571 84.8997 42.7043 85.0863 42.8909C85.2728 43.0774 85.5103 43.1695 85.8011 43.1695C85.9683 43.1695 86.1233 43.1308 86.2639 43.0556C86.4044 42.9805 86.5232 42.8666 86.6177 42.714L87.2065 43.0581C87.0805 43.3028 86.8939 43.4918 86.6516 43.6251C86.4093 43.7583 86.1282 43.8238 85.8083 43.8238C85.4691 43.8238 85.1638 43.7511 84.8948 43.6081L84.8924 43.6129Z" fill="#602BE9"/>
<path d="M93.1064 40.8336C93.3559 41.0759 93.4795 41.4321 93.4795 41.907V43.7849H92.7138V42.0064C92.7138 41.7205 92.646 41.5048 92.5103 41.3594C92.3746 41.214 92.1832 41.1413 91.9336 41.1413C91.6525 41.1413 91.4296 41.2261 91.2648 41.3958C91.1 41.5654 91.0201 41.8101 91.0201 42.13V43.7873H90.2544V39.2344H91.0201V40.8918C91.1461 40.7561 91.3036 40.6543 91.4902 40.5816C91.6767 40.5089 91.8827 40.475 92.1129 40.475C92.5248 40.475 92.8568 40.5961 93.1064 40.836V40.8336Z" fill="#602BE9"/>
<path d="M99.7265 40.8337C99.9761 41.076 100.1 41.4322 100.1 41.9071V43.785H99.3339V42.0065C99.3339 41.7206 99.2661 41.5049 99.1304 41.3595C98.9947 41.2141 98.8033 41.1414 98.5537 41.1414C98.2726 41.1414 98.0497 41.2263 97.8849 41.3959C97.7202 41.5655 97.6402 41.8102 97.6402 42.1301V43.7874H96.8745V40.5114H97.6039V40.9355C97.7299 40.7853 97.8898 40.6689 98.0812 40.5914C98.2726 40.5139 98.4907 40.4751 98.7306 40.4751C99.1425 40.4751 99.4745 40.5963 99.7241 40.8361L99.7265 40.8337Z" fill="#602BE9"/>
<path d="M104.1 43.6129C103.834 43.47 103.628 43.2713 103.477 43.0144C103.327 42.76 103.254 42.4693 103.254 42.147C103.254 41.8247 103.33 41.5364 103.477 41.2819C103.628 41.0275 103.834 40.8313 104.1 40.6859C104.367 40.5429 104.665 40.4702 104.997 40.4702C105.329 40.4702 105.631 40.5429 105.898 40.6859C106.165 40.8288 106.37 41.0275 106.521 41.2819C106.671 41.5364 106.744 41.8247 106.744 42.147C106.744 42.4693 106.669 42.76 106.521 43.0144C106.37 43.2713 106.165 43.47 105.898 43.6129C105.631 43.7559 105.331 43.8286 104.997 43.8286C104.662 43.8286 104.367 43.7559 104.1 43.6129ZM105.694 42.8884C105.879 42.6994 105.971 42.4523 105.971 42.147C105.971 41.8417 105.879 41.5921 105.694 41.4055C105.51 41.2165 105.278 41.1244 104.994 41.1244C104.711 41.1244 104.48 41.2189 104.299 41.4055C104.117 41.5945 104.025 41.8417 104.025 42.147C104.025 42.4523 104.117 42.7019 104.299 42.8884C104.48 43.0774 104.713 43.1695 104.994 43.1695C105.275 43.1695 105.51 43.075 105.694 42.8884Z" fill="#602BE9"/>
<path d="M109.896 39.2319H110.662V43.7849H109.896V39.2319Z" fill="#602BE9"/>
<path d="M114.664 43.6129C114.398 43.47 114.192 43.2713 114.042 43.0144C113.892 42.76 113.819 42.4693 113.819 42.147C113.819 41.8247 113.894 41.5364 114.042 41.2819C114.192 41.0275 114.398 40.8313 114.664 40.6859C114.931 40.5429 115.229 40.4702 115.561 40.4702C115.893 40.4702 116.196 40.5429 116.462 40.6859C116.729 40.8288 116.935 41.0275 117.085 41.2819C117.235 41.5364 117.308 41.8247 117.308 42.147C117.308 42.4693 117.233 42.76 117.085 43.0144C116.935 43.2713 116.729 43.47 116.462 43.6129C116.196 43.7559 115.895 43.8286 115.561 43.8286C115.227 43.8286 114.931 43.7559 114.664 43.6129ZM116.259 42.8884C116.443 42.6994 116.535 42.4523 116.535 42.147C116.535 41.8417 116.443 41.5921 116.259 41.4055C116.075 41.2165 115.842 41.1244 115.559 41.1244C115.275 41.1244 115.045 41.2189 114.863 41.4055C114.681 41.5945 114.589 41.8417 114.589 42.147C114.589 42.4523 114.681 42.7019 114.863 42.8884C115.045 43.0774 115.278 43.1695 115.559 43.1695C115.84 43.1695 116.075 43.075 116.259 42.8884Z" fill="#602BE9"/>
<path d="M123.713 40.5066V43.2858C123.713 44.4392 123.124 45.0159 121.946 45.0159C121.631 45.0159 121.333 44.9771 121.05 44.8972C120.769 44.8172 120.534 44.7009 120.349 44.5507L120.693 43.974C120.836 44.0927 121.018 44.1872 121.236 44.2599C121.454 44.3326 121.677 44.3665 121.903 44.3665C122.264 44.3665 122.525 44.2841 122.695 44.1218C122.862 43.957 122.947 43.7099 122.947 43.3731V43.201C122.816 43.344 122.656 43.453 122.47 43.5257C122.281 43.5984 122.075 43.6372 121.849 43.6372C121.539 43.6372 121.258 43.5718 121.006 43.4385C120.754 43.3052 120.555 43.1186 120.41 42.8763C120.265 42.634 120.192 42.3602 120.192 42.0476C120.192 41.7351 120.265 41.4613 120.41 41.2214C120.555 40.9815 120.754 40.7973 121.006 40.6665C121.258 40.5356 121.539 40.4702 121.849 40.4702C122.087 40.4702 122.302 40.509 122.496 40.5865C122.69 40.6641 122.852 40.7828 122.983 40.9427V40.5066H123.713ZM122.678 42.7237C122.865 42.5492 122.957 42.3239 122.957 42.0452C122.957 41.7666 122.865 41.5485 122.678 41.3764C122.491 41.2044 122.254 41.1196 121.963 41.1196C121.672 41.1196 121.428 41.2044 121.244 41.3764C121.057 41.5485 120.965 41.7714 120.965 42.0452C120.965 42.319 121.057 42.5492 121.244 42.7237C121.43 42.8981 121.67 42.9854 121.963 42.9854C122.256 42.9854 122.491 42.8981 122.678 42.7237Z" fill="#602BE9"/>
<path d="M127.173 39.8354C127.078 39.7481 127.032 39.6391 127.032 39.5083C127.032 39.3774 127.078 39.2684 127.173 39.1811C127.267 39.0939 127.384 39.0503 127.522 39.0503C127.66 39.0503 127.776 39.0915 127.871 39.1763C127.965 39.2611 128.011 39.3653 128.011 39.4913C128.011 39.627 127.965 39.7409 127.873 39.8329C127.781 39.925 127.662 39.9711 127.519 39.9711C127.376 39.9711 127.262 39.9274 127.17 39.8402L127.173 39.8354ZM127.136 40.5066H127.902V43.7826H127.136V40.5066Z" fill="#602BE9"/>
<path d="M134.393 42.3917H131.822C131.868 42.634 131.985 42.823 132.176 42.966C132.365 43.1065 132.603 43.1768 132.884 43.1768C133.245 43.1768 133.54 43.0581 133.773 42.8206L134.185 43.2931C134.037 43.47 133.85 43.6008 133.628 43.6929C133.402 43.7826 133.15 43.8286 132.867 43.8286C132.506 43.8286 132.191 43.7559 131.917 43.6129C131.643 43.47 131.432 43.2713 131.282 43.0144C131.132 42.76 131.059 42.4693 131.059 42.147C131.059 41.8247 131.132 41.5412 131.277 41.2844C131.423 41.0299 131.624 40.8288 131.881 40.6859C132.137 40.5429 132.428 40.4702 132.753 40.4702C133.078 40.4702 133.356 40.5405 133.608 40.681C133.86 40.8216 134.056 41.0203 134.197 41.2771C134.338 41.5339 134.408 41.8271 134.408 42.1639C134.408 42.2173 134.403 42.2924 134.396 42.3917H134.393ZM132.128 41.3038C131.958 41.4491 131.854 41.643 131.818 41.8829H133.676C133.642 41.6454 133.543 41.454 133.376 41.3062C133.208 41.1584 133 41.0857 132.75 41.0857C132.501 41.0857 132.297 41.1584 132.128 41.3038Z" fill="#602BE9"/>
<path d="M137.79 43.722C137.536 43.6517 137.335 43.5645 137.182 43.4579L137.478 42.8739C137.626 42.9733 137.802 43.0508 138.008 43.1089C138.214 43.1671 138.418 43.1986 138.619 43.1986C139.077 43.1986 139.307 43.0774 139.307 42.8376C139.307 42.7237 139.249 42.6437 139.133 42.5977C139.016 42.5516 138.83 42.5104 138.571 42.4693C138.302 42.4281 138.081 42.382 137.911 42.3287C137.742 42.2754 137.594 42.1833 137.47 42.0501C137.344 41.9168 137.284 41.7326 137.284 41.4952C137.284 41.185 137.415 40.9354 137.674 40.7489C137.933 40.5623 138.285 40.4702 138.726 40.4702C138.951 40.4702 139.176 40.4969 139.399 40.5478C139.625 40.5986 139.809 40.6665 139.952 40.7537L139.656 41.3377C139.377 41.1753 139.065 41.0929 138.718 41.0929C138.493 41.0929 138.323 41.1269 138.207 41.1947C138.091 41.2626 138.033 41.3522 138.033 41.4613C138.033 41.5848 138.096 41.6721 138.219 41.7229C138.343 41.7738 138.537 41.8223 138.798 41.8683C139.06 41.9095 139.276 41.9556 139.443 42.0089C139.61 42.0622 139.755 42.1518 139.874 42.2778C139.995 42.4038 140.056 42.5856 140.056 42.8182C140.056 43.1259 139.923 43.3706 139.656 43.5548C139.39 43.7389 139.029 43.831 138.571 43.831C138.304 43.831 138.045 43.7971 137.79 43.7268V43.722Z" fill="#602BE9"/>
<defs>
<linearGradient id="paint0_linear_4483_98" x1="24.2188" y1="11.8513" x2="41.1585" y2="46.7775" gradientUnits="userSpaceOnUse">
<stop stop-color="#6711FF"/>
<stop offset="0.17" stop-color="#7223FF"/>
<stop offset="0.52" stop-color="#8746FF"/>
<stop offset="0.81" stop-color="#945BFF"/>
<stop offset="1" stop-color="#9963FF"/>
</linearGradient>
<linearGradient id="paint1_linear_4483_98" x1="4.30338" y1="47.8969" x2="20.1939" y2="14.8897" gradientUnits="userSpaceOnUse">
<stop stop-color="#6711FF"/>
<stop offset="0.17" stop-color="#7223FF"/>
<stop offset="0.52" stop-color="#8746FF"/>
<stop offset="0.81" stop-color="#945BFF"/>
<stop offset="1" stop-color="#9963FF"/>
</linearGradient>
</defs>
</svg>
